# xmcd
#
# Track frame offsets: 
#        150
#        27935
#        47245
#        73784
#        92702
#        112786
#        131887
#        153807
#
# Disc length: 2333 seconds
#
# Revision: 0
# Processed by: cddbd v1.5.2PL0 Copyright (c) Steve Scherf et al.
# Submitted via: ExactAudioCopy v1.0b6
#
DISCID=64091b08
DTITLE=Itadi - Itadi
DYEAR=1977
DGENRE=Afrique
TTITLE0=Watch your life
TTITLE1=Ibakubuele
TTITLE2=Peace and freedom
TTITLE3=Mama
TTITLE4=Dodzi
TTITLE5=Hustle
TTITLE6=Live in other world
TTITLE7=Ayala
EXTD=
EXTT0=
EXTT1=
EXTT2=
EXTT3=
EXTT4=
EXTT5=
EXTT6=
EXTT7=
PLAYORDER=
